<svg id="Layer_1" data-name="Layer 1" xmlns="http://www.w3.org/2000/svg" viewBox="0 0 227 27"><defs><style>.cls-1{fill:#929dc5;fill-rule:evenodd;}</style></defs><path class="cls-1" d="M68.31,9.36,73,2.46A4,4,0,0,1,76.49.51a4.11,4.11,0,0,1,3,1.24,4,4,0,0,1,1.26,3A3.85,3.85,0,0,1,80.07,7l-4.25,6.25L81,19.87a3.66,3.66,0,0,1,.78,2.33,4.21,4.21,0,0,1-1.22,3,4,4,0,0,1-3,1.26,3.51,3.51,0,0,1-2.91-1.25l-6.38-8v4.42a5.54,5.54,0,0,1-.65,2.95,3.8,3.8,0,0,1-3.45,1.91,3.9,3.9,0,0,1-3.2-1.4A5.26,5.26,0,0,1,60,21.65V5.23A5,5,0,0,1,61,1.9,3.78,3.78,0,0,1,64.15.51,4.08,4.08,0,0,1,67.31,1.9a3.49,3.49,0,0,1,.89,1.55,10.16,10.16,0,0,1,.11,1.82ZM46.85,0a13.15,13.15,0,0,1,8.51,3.13q3,2.48,3,5.13a4,4,0,0,1-1.86,3.49,4.12,4.12,0,0,1-4.26.22,13.33,13.33,0,0,1-1.93-1.89A4.88,4.88,0,0,0,43.29,10a5,5,0,0,0-1.4,3.56,4.93,4.93,0,0,0,1.4,3.54,4.63,4.63,0,0,0,3.47,1.45,5,5,0,0,0,3.17-1.16l1.81-1.77a3.59,3.59,0,0,1,2.45-.84,4.09,4.09,0,0,1,3,1.21,3.93,3.93,0,0,1,1.26,2.94q0,2.34-2.73,4.74A13,13,0,0,1,46.83,27a13.38,13.38,0,0,1-11.38-6.29,13.22,13.22,0,0,1-2.05-7.16,13.21,13.21,0,0,1,4.27-9.91A13,13,0,0,1,46.85,0Zm-15,5.74V21.63A5.27,5.27,0,0,1,30.74,25a3.73,3.73,0,0,1-3.14,1.46,4,4,0,0,1-3.1-1.37,5,5,0,0,1-1.06-3.49V5.74A5.74,5.74,0,0,1,24.5,1.88,3.93,3.93,0,0,1,27.6.51a4,4,0,0,1,3.11,1.35A5.74,5.74,0,0,1,31.8,5.74ZM8.36,9.36l4.72-6.9A4,4,0,0,1,16.54.51a4.11,4.11,0,0,1,3,1.24,4,4,0,0,1,1.26,3A3.85,3.85,0,0,1,20.12,7l-4.25,6.25,5.2,6.66a3.66,3.66,0,0,1,.78,2.33,4.17,4.17,0,0,1-1.23,3,4,4,0,0,1-3,1.26,3.51,3.51,0,0,1-2.91-1.25l-6.38-8v4.42a5.54,5.54,0,0,1-.65,2.95,3.8,3.8,0,0,1-3.45,1.91,3.9,3.9,0,0,1-3.2-1.4A5.26,5.26,0,0,1,0,21.65V5.23A5,5,0,0,1,1.08,1.9,3.78,3.78,0,0,1,4.2.51,4.08,4.08,0,0,1,7.36,1.9a3.49,3.49,0,0,1,.89,1.55,10.16,10.16,0,0,1,.11,1.82V9.36Zm215.88,7.08,1.95,3.19a5.18,5.18,0,0,1,.81,2.74,3.91,3.91,0,0,1-1.21,2.95,4.08,4.08,0,0,1-3,1.17,3.74,3.74,0,0,1-3.41-1.95L216,18.76v3.47a4.29,4.29,0,0,1-1.15,3,3.8,3.8,0,0,1-2.91,1.24,3.73,3.73,0,0,1-3.24-1.55,6,6,0,0,1-1-3.61V5.55c0-3.24,1.72-4.86,5.14-4.86h5.28a8.38,8.38,0,0,1,4.83,1.53,9.06,9.06,0,0,1,3.26,4,9.42,9.42,0,0,1,.78,3.7A9.81,9.81,0,0,1,224.24,16.44Zm-26.7,1.95h3.77a5.26,5.26,0,0,1,3.48,1,3.79,3.79,0,0,1,1.34,3,3.82,3.82,0,0,1-1.34,3,5.28,5.28,0,0,1-3.45.9h-6.47a9.11,9.11,0,0,1-3.13-.36,3.69,3.69,0,0,1-2.2-2.27,11.84,11.84,0,0,1-.33-3.32V6.44a16.4,16.4,0,0,1,.11-2.35A3.91,3.91,0,0,1,192.55.81a17.81,17.81,0,0,1,2.62-.12h5c1.35,0,2.13,0,2.36,0a4.12,4.12,0,0,1,2.17.79,3.66,3.66,0,0,1,1.51,3,3.77,3.77,0,0,1-1.32,3.1,5,5,0,0,1-3.22.95h-4.09v1.75h3.26a3.59,3.59,0,0,1,2.37.77,2.79,2.79,0,0,1,1,2.27q0,3.06-3.66,3.06h-3v1.93ZM173,8.56h-2.19a4.52,4.52,0,0,1-3-1,3.64,3.64,0,0,1-1.27-2.9,4,4,0,0,1,.6-2.1,3.4,3.4,0,0,1,1.55-1.42,14.24,14.24,0,0,1,4.51-.43h8.37a12.89,12.89,0,0,1,4,.38,3.44,3.44,0,0,1,1.61,1.42,4,4,0,0,1,.62,2.11,4.08,4.08,0,0,1-1.37,3,4.56,4.56,0,0,1-3.18.92h-1.9V21.32a6.26,6.26,0,0,1-.7,3.22,3.78,3.78,0,0,1-3.41,1.92,3.92,3.92,0,0,1-3.43-1.75,5.75,5.75,0,0,1-.76-3.3Zm-9.86,7.88,2,3.19a5.18,5.18,0,0,1,.81,2.74,3.91,3.91,0,0,1-1.21,2.95,4.08,4.08,0,0,1-3,1.17,3.74,3.74,0,0,1-3.41-1.95l-3.47-5.78v3.47a4.25,4.25,0,0,1-1.15,3,4.1,4.1,0,0,1-6.15-.31,6,6,0,0,1-1-3.61V5.55q0-4.86,5.14-4.86h5.27a8.34,8.34,0,0,1,4.83,1.53,9,9,0,0,1,3.27,4,9.59,9.59,0,0,1,.77,3.7,9.76,9.76,0,0,1-2.71,6.55ZM128.63,23a7.55,7.55,0,0,1-1.22,2.12,3.94,3.94,0,0,1-3,1.39,3.89,3.89,0,0,1-3.41-1.8,4.18,4.18,0,0,1-.72-2.4,5.22,5.22,0,0,1,.52-2.23L128.63,3A3.91,3.91,0,0,1,132.44.51a4,4,0,0,1,3.89,2.57l7.95,17.18a4.83,4.83,0,0,1,.48,2,4,4,0,0,1-1,2.66,4,4,0,0,1-3.21,1.52,3.7,3.7,0,0,1-2.67-1,8,8,0,0,1-1.59-2.5ZM108.46,8.56h-2.2a4.51,4.51,0,0,1-3-1A3.61,3.61,0,0,1,102,4.64a4,4,0,0,1,.6-2.1,3.36,3.36,0,0,1,1.55-1.42,14.2,14.2,0,0,1,4.5-.43H117a12.89,12.89,0,0,1,4,.38,3.44,3.44,0,0,1,1.61,1.42,4,4,0,0,1,.62,2.11,4.08,4.08,0,0,1-1.37,3,4.57,4.57,0,0,1-3.19.92h-1.9V21.32a6.26,6.26,0,0,1-.69,3.22,3.79,3.79,0,0,1-3.42,1.92,3.93,3.93,0,0,1-3.43-1.75,5.83,5.83,0,0,1-.75-3.3Zm-22.2,8.06a4.9,4.9,0,0,1,2.95,1.24,6.11,6.11,0,0,0,2.68,1.56c.71,0,1.06-.37,1.06-1.13a1.27,1.27,0,0,0-.62-1.05A37.59,37.59,0,0,0,88.6,15.8q-5.55-2-5.55-7.36A7.73,7.73,0,0,1,86,2.05a9.79,9.79,0,0,1,6.34-2A10.11,10.11,0,0,1,98,1.59a4.71,4.71,0,0,1,2.41,4.08,3.56,3.56,0,0,1-.91,2.5,3.06,3.06,0,0,1-2.37,1,5.66,5.66,0,0,1-3.39-1.49A3.5,3.5,0,0,0,92,6.77a.9.9,0,0,0-1,1c0,.64.84,1.22,2.51,1.74a15.83,15.83,0,0,1,5.36,2.7,7.44,7.44,0,0,1,2.53,6,8.1,8.1,0,0,1-2.84,6.57A10.38,10.38,0,0,1,91.68,27a10.55,10.55,0,0,1-7-2.29,5.38,5.38,0,0,1-2.22-4.26,3.72,3.72,0,0,1,1.09-2.72,3.78,3.78,0,0,1,2.69-1.11Z"/></svg>